<?xml version="1.0" standalone="no"?>
<!DOCTYPE svg PUBLIC "-//W3C//DTD SVG 20010904//EN"
 "http://www.w3.org/TR/2001/REC-SVG-20010904/DTD/svg10.dtd">
<svg version="1.0" xmlns="http://www.w3.org/2000/svg"
 width="512.000000pt" height="512.000000pt" viewBox="0 0 512.000000 512.000000"
 preserveAspectRatio="xMidYMid meet">
<metadata>
Created by potrace 1.15, written by Peter Selinger 2001-2017
</metadata>
<g transform="translate(0.000000,512.000000) scale(0.100000,-0.100000)"
fill="#000000" stroke="none">
<path d="M163 3724 c-63 -32 -80 -125 -30 -172 12 -11 555 -311 1206 -666 953
-519 1192 -646 1221 -646 29 0 268 127 1221 646 651 355 1194 655 1206 666 71
66 -1 204 -96 185 -14 -3 -543 -288 -1175 -632 -632 -345 -1156 -625 -1165
-622 -9 2 -529 284 -1156 626 -627 343 -1153 625 -1170 627 -16 3 -44 -3 -62
-12z"/>
<path d="M142 2855 c-37 -31 -48 -73 -32 -120 9 -28 25 -43 78 -74 37 -21 578
-317 1202 -657 888 -484 1143 -619 1170 -619 27 0 282 135 1170 619 624 340
1165 636 1202 657 53 31 69 46 78 74 16 47 5 89 -32 120 -64 54 -3 83 -1264
-605 l-1154 -629 -1154 629 c-1261 688 -1200 659 -1264 605z"/>
</g>
</svg>
